<svg xmlns="http://www.w3.org/2000/svg" width="72" height="22" viewBox="0 0 72 22">
  <g id="Novidade" transform="translate(-48 -31)">
    <g id="Novo">
      <g id="New" transform="translate(48 31)">
        <rect id="Retângulo_1" data-name="Retângulo 1" width="72" height="22" rx="11" fill="#26cb7c"/>
        <g id="Grupo_11" data-name="Grupo 11" transform="translate(8 4)">
          <text id="Novidade-2" data-name="Novidade" transform="translate(8.593 11)" fill="#fff" font-size="11" font-family="ArialRoundedMTBold, Arial Rounded MT"><tspan x="0" y="0">Novidade</tspan></text>
          <path id="Icon_awesome-check" data-name="Icon awesome-check" d="M3.655,12.737.158,9.11a.573.573,0,0,1,0-.789l.761-.789a.525.525,0,0,1,.761,0L4.036,9.975,9.083,4.741a.525.525,0,0,1,.761,0l.761.789a.573.573,0,0,1,0,.789L4.416,12.737A.525.525,0,0,1,3.655,12.737Z" transform="translate(-4 -1.692)" fill="#fff"/>
        </g>
      </g>
    </g>
  </g>
</svg>
